# xmcd CD database file
#
# Track frame offsets:
#	150
#	17232
#	32807
#	45395
#	59542
#	72602
#	85222
#	96605
#	110802
#	125247
#	136107
#	151132
#	164555
#	180440
#
# Disc length: 2630 seconds
#
# Revision: 2
# Processed by: cddbd v1.4b41PL1 Copyright (c) Steve Scherf et al.
# Submitted via: Feurio! 1.50.2ß - http://www.feurio.com
#
DISCID=ca0a440e
DTITLE=Bobby Grass - Immer Unterwegs
DYEAR=1900
DGENRE=
TTITLE0=Engel Haben Immer Kalte Füße
TTITLE1=Der Brief
TTITLE2=Ladies Und Cowboys
TTITLE3=Eine Nacht Im Gefängnis
TTITLE4=Schön Dich hier Zu Seh`n 
TTITLE5=Die Letzte Fahrt Für Heut` Nacht
TTITLE6=Weil Du Verliebt Bist
TTITLE7=Die Gute Alte Zeit
TTITLE8=Die Waffen Einer Frau
TTITLE9=Immer Unterwegs
TTITLE10=Marshall Hook
TTITLE11=Komm Zurück
TTITLE12=Der Brief, Karaoke
TTITLE13=Engel Haben Immer Kalte Füße, Karaoke
EXTD=
EXTT0=
EXTT1=
EXTT2=
EXTT3=
EXTT4=
EXTT5=
EXTT6=
EXTT7=
EXTT8=
EXTT9=
EXTT10=
EXTT11=
EXTT12=
EXTT13=
PLAYORDER=
